<svg width="184" height="23" viewBox="0 0 184 23" fill="none" xmlns="http://www.w3.org/2000/svg">
<path d="M0.563672 22V0.999999H4.16367V18.55H14.3637V22H0.563672ZM23.5566 22.36C21.3766 22.36 19.6466 21.65 18.3666 20.23C17.1066 18.79 16.4766 16.82 16.4766 14.32C16.4766 11.84 17.1166 9.89 18.3966 8.47C19.6766 7.03 21.3966 6.31 23.5566 6.31C25.5166 6.31 27.1166 6.92 28.3566 8.14C29.6166 9.36 30.2466 11.15 30.2466 13.51C30.2466 14.33 30.2066 15.05 30.1266 15.67H19.9566C20.0166 16.75 20.3866 17.62 21.0666 18.28C21.7666 18.94 22.5966 19.27 23.5566 19.27C24.9166 19.27 25.9966 18.74 26.7966 17.68L29.0166 19.96C27.6766 21.56 25.8566 22.36 23.5566 22.36ZM19.9866 12.76H26.7666C26.6866 11.66 26.3466 10.83 25.7466 10.27C25.1466 9.69 24.4166 9.4 23.5566 9.4C22.5566 9.4 21.7266 9.68 21.0666 10.24C20.4266 10.78 20.0666 11.62 19.9866 12.76ZM38.1035 22.36C35.7235 22.36 34.5335 21.05 34.5335 18.43V9.73H32.2535V6.67H34.5335V2.02L38.0435 0.339998V6.67H41.5835V9.73H38.0435V17.74C38.0435 18.72 38.4735 19.21 39.3335 19.21C40.1135 19.21 40.9135 18.98 41.7335 18.52L41.3135 21.67C40.4335 22.13 39.3635 22.36 38.1035 22.36ZM50.0079 22.36C48.7679 22.36 47.5979 22.12 46.4979 21.64C45.4179 21.16 44.5979 20.52 44.0379 19.72L46.4379 17.68C47.5179 18.76 48.7079 19.3 50.0079 19.3C51.6679 19.3 52.4979 18.8 52.4979 17.8C52.4979 17.46 52.3479 17.15 52.0479 16.87C51.7679 16.59 51.4579 16.38 51.1179 16.24C50.7979 16.08 50.2679 15.85 49.5279 15.55C47.7679 14.97 46.4779 14.31 45.6579 13.57C44.8579 12.81 44.4579 11.81 44.4579 10.57C44.4579 9.23 44.9679 8.19 45.9879 7.45C47.0279 6.69 48.3379 6.31 49.9179 6.31C52.2379 6.31 54.0679 7.1 55.4079 8.68L52.9779 10.66C52.0779 9.8 51.0579 9.37 49.9179 9.37C48.5379 9.37 47.8479 9.79 47.8479 10.63C47.8479 11.05 48.0979 11.41 48.5979 11.71C49.1179 12.01 49.8679 12.32 50.8479 12.64C52.5079 13.2 53.7579 13.86 54.5979 14.62C55.4579 15.38 55.8879 16.44 55.8879 17.8C55.8879 19.26 55.3579 20.39 54.2979 21.19C53.2379 21.97 51.8079 22.36 50.0079 22.36ZM68.6184 13.39V18.76H65.1084V13.39H59.7984V10H65.1084V4.66H68.6184V10H73.8984V13.39H68.6184ZM84.6649 22L77.3449 0.999999H81.2149L85.9249 15.19C86.1849 16.09 86.3649 16.73 86.4649 17.11C86.5449 16.69 86.7149 16.05 86.9749 15.19L91.6549 0.999999H95.4649L88.1749 22H84.6649ZM102.834 22.36C100.654 22.36 98.9239 21.65 97.6439 20.23C96.3839 18.79 95.7539 16.82 95.7539 14.32C95.7539 11.84 96.3939 9.89 97.6739 8.47C98.9539 7.03 100.674 6.31 102.834 6.31C104.794 6.31 106.394 6.92 107.634 8.14C108.894 9.36 109.524 11.15 109.524 13.51C109.524 14.33 109.484 15.05 109.404 15.67H99.2339C99.2939 16.75 99.6639 17.62 100.344 18.28C101.044 18.94 101.874 19.27 102.834 19.27C104.194 19.27 105.274 18.74 106.074 17.68L108.294 19.96C106.954 21.56 105.134 22.36 102.834 22.36ZM99.2639 12.76H106.044C105.964 11.66 105.624 10.83 105.024 10.27C104.424 9.69 103.694 9.4 102.834 9.4C101.834 9.4 101.004 9.68 100.344 10.24C99.7039 10.78 99.3439 11.62 99.2639 12.76ZM122.595 22V13.21C122.595 10.83 121.645 9.64 119.745 9.64C117.665 9.64 116.625 10.81 116.625 13.15V22H113.115V6.67H116.625V8.11C117.625 6.91 118.975 6.31 120.675 6.31C122.275 6.31 123.575 6.81 124.575 7.81C125.595 8.81 126.105 10.4 126.105 12.58V22H122.595ZM134.959 22.36C132.579 22.36 131.389 21.05 131.389 18.43V9.73H129.109V6.67H131.389V2.02L134.899 0.339998V6.67H138.439V9.73H134.899V17.74C134.899 18.72 135.329 19.21 136.189 19.21C136.969 19.21 137.769 18.98 138.589 18.52L138.169 21.67C137.289 22.13 136.219 22.36 134.959 22.36ZM150.6 22V20.53C149.64 21.75 148.3 22.36 146.58 22.36C144.98 22.36 143.67 21.86 142.65 20.86C141.63 19.84 141.12 18.24 141.12 16.06V6.67H144.63V15.43C144.63 17.81 145.59 19 147.51 19C149.57 19 150.6 17.83 150.6 15.49V6.67H154.11V22H150.6ZM158.613 22V6.67H162.123V8.26C162.743 6.96 163.793 6.31 165.273 6.31C166.353 6.31 167.303 6.66 168.123 7.36L167.613 10.57C166.853 10.03 165.983 9.76 165.003 9.76C164.203 9.76 163.523 10.04 162.963 10.6C162.403 11.16 162.123 12.1 162.123 13.42V22H158.613ZM176.955 22.36C174.775 22.36 173.045 21.65 171.765 20.23C170.505 18.79 169.875 16.82 169.875 14.32C169.875 11.84 170.515 9.89 171.795 8.47C173.075 7.03 174.795 6.31 176.955 6.31C178.915 6.31 180.515 6.92 181.755 8.14C183.015 9.36 183.645 11.15 183.645 13.51C183.645 14.33 183.605 15.05 183.525 15.67H173.355C173.415 16.75 173.785 17.62 174.465 18.28C175.165 18.94 175.995 19.27 176.955 19.27C178.315 19.27 179.395 18.74 180.195 17.68L182.415 19.96C181.075 21.56 179.255 22.36 176.955 22.36ZM173.385 12.76H180.165C180.085 11.66 179.745 10.83 179.145 10.27C178.545 9.69 177.815 9.4 176.955 9.4C175.955 9.4 175.125 9.68 174.465 10.24C173.825 10.78 173.465 11.62 173.385 12.76Z" fill="#E8E6E6"/>
</svg>